<svg xmlns="http://www.w3.org/2000/svg" width="100" height="47" fill="none" style=""><rect id="backgroundrect" width="100%" height="100%" x="0" y="0" fill="none" stroke="none"/>



<g class="currentLayer" style=""><title>Layer 1</title><rect x="0" y="0" width="100" height="47" rx="23.5" fill="white" id="svg_1" class=""/><path d="M54.43199999999999,40.480199999999996 C54.010999999999996,40.3912 53.403999999999996,40.3514 52.46199999999999,40.3514 C51.97399999999999,40.3514 51.44499999999999,40.3621 50.93299999999999,40.3725 C50.42599999999999,40.3826 49.90299999999999,40.393299999999996 49.42599999999999,40.393299999999996 C49.21600000000001,40.393299999999996 48.99799999999999,40.389399999999995 48.768,40.38549999999999 C48.531000000000006,40.3815 48.287000000000006,40.377399999999994 48.04599999999999,40.377399999999994 C47.191,40.377399999999994 45.412000000000006,40.377399999999994 45.327,41.498400000000004 C45.303,41.8057 45.40299999999999,42.0638 45.622000000000014,42.265100000000004 C46.11099999999999,42.713800000000006 47.095,42.7743 47.99199999999999,42.7743 C48.40899999999999,42.7743 48.84700000000001,42.758799999999994 49.27099999999999,42.74379999999999 C49.68799999999999,42.728899999999996 50.083,42.715199999999996 50.45099999999999,42.715199999999996 C50.71600000000001,42.715199999999996 51.01599999999999,42.7161 51.333,42.716899999999995 C52.02099999999999,42.7188 52.785,42.72110000000001 53.43600000000001,42.715199999999996 C54.542,42.7051 55.587999999999994,42.6957 55.668000000000006,41.691 C55.744,40.758300000000006 54.985000000000014,40.5976 54.43199999999999,40.480199999999996 z" fill="#231F20" id="svg_2" class=""/><path d="M60.43899999999999,7.415999999999997 C59.578,6.497900000000001 58.377999999999986,5.3333999999999975 56.730999999999995,4.4709999999999965 C55.137,3.636400000000002 53.54499999999999,3.209600000000002 51.405,3.0422999999999973 C51.04599999999999,3.0142000000000024 50.684,3 50.33000000000001,3 C45.90199999999999,3 42.828,5.144599999999997 41.028999999999996,6.9437 C39.016999999999996,8.954900000000002 36.69200000000001,12.3549 37.03399999999999,17.131500000000003 C37.287000000000006,20.659100000000002 39.30799999999999,23.432000000000002 40.93100000000001,25.6601 L41,25.755499999999998 C41.28999999999999,26.152699999999996 41.59100000000001,26.541700000000006 41.91,26.954499999999996 C42.91399999999999,28.250799999999998 43.952,29.5912 44.697,31.293899999999994 L44.78299999999999,31.488799999999998 C45.087999999999994,32.1799 45.46600000000001,33.0399 45.42099999999999,33.4825 C45.388000000000005,33.7989 45.251000000000005,33.953500000000005 45.09299999999999,34.13249999999999 C44.873999999999995,34.3811 44.601,34.6905 44.77600000000001,35.353300000000004 C45.00399999999999,36.213499999999996 46.087999999999994,36.213499999999996 47.34299999999999,36.213499999999996 H53.88499999999999 C54.91999999999999,36.213499999999996 55.991000000000014,36.213499999999996 56.218999999999994,35.352999999999994 C56.39099999999999,34.7055 56.09200000000001,34.3425 55.852000000000004,34.051 C55.71600000000001,33.8861 55.59899999999999,33.743700000000004 55.57300000000001,33.565 C55.45099999999999,32.7008 56.383999999999986,30.7384 57.303,29.2808 C57.883999999999986,28.360799999999998 58.506,27.561800000000005 59.10900000000001,26.789299999999997 C59.387,26.432199999999995 59.65100000000001,26.094800000000006 59.900000000000006,25.757400000000004 C60.03200000000001,25.578699999999998 60.16499999999999,25.400099999999995 60.29900000000001,25.221900000000005 C61.968999999999994,22.9829 63.696,20.668100000000003 63.96100000000001,17.226399999999998 C64.33600000000001,12.3585 61.91499999999999,8.990400000000001 60.43899999999999,7.415999999999997 zM57.94800000000001,24.018300000000004 C57.828,24.1762 57.709,24.3337 57.59,24.491 C57.382000000000005,24.766800000000003 57.17400000000001,25.040599999999998 56.965,25.312299999999993 C55.09,27.7624 53.31800000000001,30.079800000000006 52.90299999999999,33.604299999999995 H48.087999999999994 C47.571,29.877899999999997 45.764999999999986,27.5013 43.85400000000001,24.988500000000002 C43.70599999999999,24.792900000000003 43.55600000000001,24.5959 43.406000000000006,24.397599999999997 L43.15100000000001,24.060499999999998 C41.66300000000001,22.0972 39.976,19.872100000000003 39.73400000000001,17.272 C39.351,13.165300000000002 41.25200000000001,10.364899999999999 42.91300000000001,8.738900000000001 C45.035,6.661000000000001 47.59700000000001,5.607399999999998 50.525000000000006,5.607399999999998 C50.860000000000014,5.607399999999998 51.203,5.621600000000001 51.54599999999999,5.649700000000003 C56.714,6.072000000000003 60.889999999999986,10.286999999999999 61.260999999999996,15.454300000000003 C61.535,19.289700000000003 59.71100000000001,21.6935 57.947,24.018300000000004 H57.94800000000001 z" fill="#231F20" id="svg_3" class=""/></g></svg>