<svg xmlns="http://www.w3.org/2000/svg" width="100" height="47" fill="none"><rect id="backgroundrect" width="100%" height="100%" x="0" y="0" fill="none" stroke="none"/>


<g class="currentLayer" style=""><title>Layer 1</title><rect y="0" width="100" height="47" rx="23.5" fill="white" id="svg_1" class="" x="0"/><path d="M55.5606,10.3307 C55.5644,10.277000000000001 55.5644,10.223199999999999 55.5606,10.1695 C55.5374,9.056399999999996 55.0693,7.9964999999999975 54.2566,7.217100000000002 C53.4439,6.4376999999999995 52.3512,6.000700000000002 51.213,6 C50.0748,5.999299999999998 48.9815,6.434800000000003 48.1678,7.2132000000000005 C47.354,7.991599999999998 46.8844,9.050800000000002 46.8598,10.163899999999998 C47.1946,12.266199999999998 48.0738,12.9287 48.7575,14.484200000000001 L39.2421,14.301099999999998 L39.0568,23.5304 C37.2536,22.843000000000004 35.9585,21.6074 34.4288,21.578699999999998 C34.3735,21.575200000000002 34.318,21.575200000000002 34.2627,21.578699999999998 C33.125,21.601 32.0416,22.058500000000002 31.2447,22.853 C30.4478,23.6475 30.001,24.7158 30,25.8288 C29.999,26.941699999999997 30.4439,28.010800000000003 31.2393,28.806600000000003 C32.0348,29.6025 33.1174,30.0619 34.255,30.086199999999998 C36.5316,29.740000000000002 37.1565,28.793799999999997 38.9622,28.1145 L38.7705,37.5432 L48.3275,37.7269 C47.6425,36.1083 46.7333,35.460800000000006 46.3927,33.3197 C46.4173,32.2068 46.8867,31.1477 47.7003,30.3694 C48.5139,29.591 49.6069,29.155500000000004 50.745,29.1562 C51.883,29.156799999999997 52.9755,29.593600000000002 53.7882,30.3729 C54.6009,31.152100000000004 55.069,32.2118 55.0922,33.32470000000001 C55.0954,33.378600000000006 55.0954,33.4327 55.0922,33.486599999999996 C55.0634,34.92400000000001 53.8941,36.155100000000004 53.1753,37.81999999999999 L62.5329,38 L63,14.7517 L53.6769,14.572899999999997 C54.4028,12.9555 55.5324,11.745600000000003 55.5606,10.3307 z" fill="black" id="svg_2" class=""/></g></svg>